<?xml version="1.0" encoding="UTF-8" standalone="no" ?>
<!DOCTYPE svg PUBLIC "-//W3C//DTD SVG 1.1//EN" "http://www.w3.org/Graphics/SVG/1.1/DTD/svg11.dtd">
<svg xmlns="http://www.w3.org/2000/svg" xmlns:xlink="http://www.w3.org/1999/xlink" version="1.1" width="516.3999444580079" height="555.552" xml:space="preserve">
<desc>Created with Fabric.js 1.6.0-rc.1</desc>
<defs></defs>
<g style="stroke: none; stroke-width: 1; stroke-dasharray: none; stroke-linecap: butt; stroke-linejoin: miter; stroke-miterlimit: 10; fill: none; fill-rule: nonzero; opacity: 1;" transform="translate(10.000000000000014 391.01) rotate(1.61) scale(0.82 1.63)" >
  <path d="M 76.27 87.52 c 0 0 -23.258 -5.6 -40.408 -17.211 H 23.522 c 20.618 15.859 52.305 23.486 52.305 23.486 S 88.925 77.51 98.09 58.253 h -3.412 C 87.01 74.164 76.27 87.52 76.27 87.52 z M 92.547 2.217 c -21.25 -11.229 -35.158 23.86 -35.158 23.86 S 17.425 2.617 7.748 32.271 c -3.45 10.576 -0.806 19.733 5.068 27.518 h 11.235 c -5.34 -6.688 -7.857 -14.621 -4.85 -23.84 c 8.111 -24.858 41.61 -5.193 41.61 -5.193 S 72.471 1.345 90.283 10.757 c 14.142 7.474 13.846 22.316 8.782 36.976 h 3.457 C 109.029 29.795 109.868 11.372 92.547 2.217 z" style="stroke: none; stroke-width: 1; stroke-dasharray: none; stroke-linecap: butt; stroke-linejoin: miter; stroke-miterlimit: 10; fill: #bf0001; fill-rule: nonzero; opacity: 1;" transform=" matrix(1 0 0 1 0 0) " stroke-linecap="round" />
  <path d="M 79.31 19.698 c -1.022 0.052 -1.854 0.845 -1.956 1.865 c 0 0 -2.99 30.017 -4.174 41.903 c -3.137 -8.113 -7.574 -19.597 -7.574 -19.597 c -0.333 -0.858 -1.192 -1.395 -2.11 -1.317 c -0.918 0.08 -1.674 0.755 -1.855 1.657 c 0 0 -3.231 16.102 -3.796 18.914 c -3.198 0 -55.771 0 -55.771 0 C 0.929 63.124 0 64.053 0 65.197 s 0.929 2.072 2.072 2.072 h 57.47 c 0.986 0 1.838 -0.696 2.031 -1.665 c 0 0 1.507 -7.505 2.73 -13.602 c 2.968 7.676 8.143 21.067 8.143 21.067 c 0.347 0.895 1.262 1.437 2.213 1.308 c 0.95 -0.128 1.688 -0.896 1.783 -1.848 c 0 0 2.233 -22.419 3.682 -36.954 c 1.783 8.723 3.64 17.802 3.64 17.802 c 0.196 0.964 1.046 1.657 2.03 1.657 h 45.97 c 1.146 0 2.073 -0.929 2.073 -2.073 c 0 -1.144 -0.928 -2.072 -2.073 -2.072 c 0 0 -41.139 0 -44.277 0 c -0.607 -2.973 -6.04 -29.537 -6.04 -29.537 C 81.241 20.348 80.333 19.646 79.31 19.698 z" style="stroke: none; stroke-width: 1; stroke-dasharray: none; stroke-linecap: butt; stroke-linejoin: miter; stroke-miterlimit: 10; fill: #ffff02; fill-rule: nonzero; opacity: 1;" transform=" matrix(1 0 0 1 0 0) " stroke-linecap="round" />
</g>
  <g transform="translate(300.78 519.84)">
   <text font-family="Tiza" font-size="40" font-weight="bold" style="stroke: none; stroke-width: 1; stroke-dasharray: none; stroke-linecap: butt; stroke-linejoin: miter; stroke-miterlimit: 10; fill: #0000e6; fill-rule: nonzero; opacity: 1;" ><tspan x="-206.12" y="8.98" style="stroke: none; stroke-width: 0; stroke-dasharray: none; stroke-linecap: butt; stroke-linejoin: miter; stroke-miterlimit: 4; fill: #0000e6; fill-rule: ; opacity: 1;">E</tspan><tspan x="-167.8" y="8.98" style="stroke: none; stroke-width: 0; stroke-dasharray: none; stroke-linecap: butt; stroke-linejoin: miter; stroke-miterlimit: 4; fill: #0000e6; fill-rule: ; opacity: 1;">l</tspan><tspan x="-129.84" y="8.98" style="stroke: none; stroke-width: 0; stroke-dasharray: none; stroke-linecap: butt; stroke-linejoin: miter; stroke-miterlimit: 4; fill: #0000e6; fill-rule: ; opacity: 1;"> </tspan><tspan x="-109.84" y="8.98" style="stroke: none; stroke-width: 0; stroke-dasharray: none; stroke-linecap: butt; stroke-linejoin: miter; stroke-miterlimit: 4; fill: #0000e6; fill-rule: ; opacity: 1;">N</tspan><tspan x="-66.52" y="8.98" style="stroke: none; stroke-width: 0; stroke-dasharray: none; stroke-linecap: butt; stroke-linejoin: miter; stroke-miterlimit: 4; fill: #0000e6; fill-rule: ; opacity: 1;">a</tspan><tspan x="-17.04" y="8.98" style="stroke: none; stroke-width: 0; stroke-dasharray: none; stroke-linecap: butt; stroke-linejoin: miter; stroke-miterlimit: 4; fill: #0000e6; fill-rule: ; opacity: 1;">d</tspan><tspan x="21.88" y="8.98" style="stroke: none; stroke-width: 0; stroke-dasharray: none; stroke-linecap: butt; stroke-linejoin: miter; stroke-miterlimit: 4; fill: #0000e6; fill-rule: ; opacity: 1;">y</tspan><tspan x="58.12" y="8.98" style="stroke: none; stroke-width: 0; stroke-dasharray: none; stroke-linecap: butt; stroke-linejoin: miter; stroke-miterlimit: 4; fill: #0000e6; fill-rule: ; opacity: 1;"> </tspan><tspan x="78.12" y="8.98" style="stroke: none; stroke-width: 0; stroke-dasharray: none; stroke-linecap: butt; stroke-linejoin: miter; stroke-miterlimit: 4; fill: #0000e6; fill-rule: ; opacity: 1;">L</tspan><tspan x="116.08" y="8.98" style="stroke: none; stroke-width: 0; stroke-dasharray: none; stroke-linecap: butt; stroke-linejoin: miter; stroke-miterlimit: 4; fill: #0000e6; fill-rule: ; opacity: 1;">a</tspan><tspan x="165.56" y="8.98" style="stroke: none; stroke-width: 0; stroke-dasharray: none; stroke-linecap: butt; stroke-linejoin: miter; stroke-miterlimit: 4; fill: #0000e6; fill-rule: ; opacity: 1;">b</tspan></text>
 </g>
<g style="stroke: none; stroke-width: 1; stroke-dasharray: none; stroke-linecap: butt; stroke-linejoin: miter; stroke-miterlimit: 10; fill: none; fill-rule: nonzero; opacity: 1;" transform="translate(88.69000000000005 10) scale(2.92 2.92)" >
  <path d="M 61.568 16.876 c 0.742 0 17.006 7.272 17.006 7.272 L 55.141 70.532 L 43.023 55.203 L 61.568 16.876 z" style="stroke: none; stroke-width: 1; stroke-dasharray: none; stroke-linecap: butt; stroke-linejoin: miter; stroke-miterlimit: 10; fill: #0000e6; fill-rule: nonzero; opacity: 1;" transform=" matrix(1 0 0 1 0 0) " stroke-linecap="round" />
  <polygon points="69.41,5.67 83.29,11.77 86.5,6.83 71.91,0 " style="stroke: none; stroke-width: 1; stroke-dasharray: none; stroke-linecap: butt; stroke-linejoin: miter; stroke-miterlimit: 10; fill: #c80000; fill-rule: nonzero; opacity: 1;" transform="  matrix(1 0 0 1 0 0) "/>
  <polygon points="64.3,20.5 70.97,7.98 79.77,12.56 72.7,26.69 " style="stroke: none; stroke-width: 1; stroke-dasharray: none; stroke-linecap: butt; stroke-linejoin: miter; stroke-miterlimit: 10; fill: #0000e6; fill-rule: nonzero; opacity: 1;" transform="  matrix(1 0 0 1 0 0) "/>
  <polygon points="26.21,37.4 56.38,74.49 52.17,79.68 22.01,40.12 " style="stroke: none; stroke-width: 1; stroke-dasharray: none; stroke-linecap: butt; stroke-linejoin: miter; stroke-miterlimit: 10; fill: #c80000; fill-rule: nonzero; opacity: 1;" transform="  matrix(1 0 0 1 0 0) "/>
  <polygon points="16.81,44.57 21.51,43.83 27.45,51 18.55,51.74 " style="stroke: none; stroke-width: 1; stroke-dasharray: none; stroke-linecap: butt; stroke-linejoin: miter; stroke-miterlimit: 10; fill: #0000e6; fill-rule: nonzero; opacity: 1;" transform="  matrix(1 0 0 1 0 0) "/>
  <polygon points="24.97,59.9 30.91,55.45 37.09,63.86 30.41,68.06 " style="stroke: none; stroke-width: 1; stroke-dasharray: none; stroke-linecap: butt; stroke-linejoin: miter; stroke-miterlimit: 10; fill: #0000e6; fill-rule: nonzero; opacity: 1;" transform="  matrix(1 0 0 1 0 0) "/>
  <polygon points="38.44,78 42.15,71.08 48.08,78 45.61,82.2 " style="stroke: none; stroke-width: 1; stroke-dasharray: none; stroke-linecap: butt; stroke-linejoin: miter; stroke-miterlimit: 10; fill: #0000e6; fill-rule: nonzero; opacity: 1;" transform="  matrix(1 0 0 1 0 0) "/>
  <polygon points="12.86,76.22 57.12,95.75 53.93,101.09 10.47,82.36 " style="stroke: none; stroke-width: 1; stroke-dasharray: none; stroke-linecap: butt; stroke-linejoin: miter; stroke-miterlimit: 10; fill: #c80000; fill-rule: nonzero; opacity: 1;" transform="  matrix(1 0 0 1 0 0) "/>
  <polygon points="50.7,97.99 44.51,110.59 16.97,98.62 19.24,93.79 37.34,101.44 41.06,93.79 " style="stroke: none; stroke-width: 1; stroke-dasharray: none; stroke-linecap: butt; stroke-linejoin: miter; stroke-miterlimit: 10; fill: #c80000; fill-rule: nonzero; opacity: 1;" transform="  matrix(1 0 0 1 0 0) "/>
  <circle cx="37.436" cy="118.876" r="7.316" style="stroke: none; stroke-width: 1; stroke-dasharray: none; stroke-linecap: butt; stroke-linejoin: miter; stroke-miterlimit: 10; fill: #0000e6; fill-rule: nonzero; opacity: 1;" transform="  matrix(1 0 0 1 0 0) "/>
  <polygon points="0.74,148.92 106.33,149.91 106.33,158.63 0,158.31 " style="stroke: none; stroke-width: 1; stroke-dasharray: none; stroke-linecap: butt; stroke-linejoin: miter; stroke-miterlimit: 10; fill: #c80000; fill-rule: nonzero; opacity: 1;" transform="  matrix(1 0 0 1 0 0) "/>
  <path d="M 79.535 32.7 c -0.359 -0.389 -0.559 -0.593 -0.559 -0.593 l -4.998 9.604 c 0.469 -0.07 0.947 -0.106 1.436 -0.106 c 5.189 0 9.398 4.208 9.398 9.396 c 0 5.188 -4.209 9.396 -9.398 9.396 c -3.697 0 -6.895 -2.141 -8.43 -5.247 l -3.141 6.038 c 0 0 16.318 15.432 10.385 35.605 c -5.936 20.178 -25.814 21.365 -25.814 21.365 l 2.967 7.417 c 0 0 36.795 0.593 47.18 -34.419 C 106.805 63.356 83.43 36.936 79.535 32.7 z" style="stroke: none; stroke-width: 1; stroke-dasharray: none; stroke-linecap: butt; stroke-linejoin: miter; stroke-miterlimit: 10; fill: #0000e6; fill-rule: nonzero; opacity: 1;" transform=" matrix(1 0 0 1 0 0) " stroke-linecap="round" />
  <circle cx="75.419" cy="50.999" r="6.429" style="stroke: none; stroke-width: 1; stroke-dasharray: none; stroke-linecap: butt; stroke-linejoin: miter; stroke-miterlimit: 10; fill: #0000e6; fill-rule: nonzero; opacity: 1;" transform="  matrix(1 0 0 1 0 0) "/>
  <path d="M 46.818 123.337 c -1.672 3.508 -5.236 5.937 -9.379 5.937 c -4.373 0 -8.107 -2.702 -9.645 -6.524 l -11.49 22.953 l 42.545 0.493 L 46.818 123.337 z" style="stroke: none; stroke-width: 1; stroke-dasharray: none; stroke-linecap: butt; stroke-linejoin: miter; stroke-miterlimit: 10; fill: #0000e6; fill-rule: nonzero; opacity: 1;" transform=" matrix(1 0 0 1 0 0) " stroke-linecap="round" />
</g>
</svg>